<svg width="24" height="24" viewBox="0 0 24 24" fill="none" xmlns="http://www.w3.org/2000/svg">
<path d="M16.1984 15.6008C16.0393 15.6008 15.8867 15.664 15.7742 15.7765C15.6617 15.889 15.5984 16.0417 15.5984 16.2008C15.5984 16.3599 15.6617 16.5125 15.7742 16.625C15.8867 16.7376 16.0393 16.8008 16.1984 16.8008H18.5984C18.7576 16.8008 18.9102 16.7376 19.0227 16.625C19.1352 16.5125 19.1984 16.3599 19.1984 16.2008C19.1984 16.0417 19.1352 15.889 19.0227 15.7765C18.9102 15.664 18.7576 15.6008 18.5984 15.6008H16.1984ZM2.39844 8.10078C2.39844 7.22557 2.74612 6.3862 3.36499 5.76733C3.98386 5.14846 4.82322 4.80078 5.69844 4.80078H18.2984C19.1737 4.80078 20.013 5.14846 20.6319 5.76733C21.2508 6.3862 21.5984 7.22557 21.5984 8.10078V15.9008C21.5984 16.776 21.2508 17.6154 20.6319 18.2342C20.013 18.8531 19.1737 19.2008 18.2984 19.2008H5.69844C4.82322 19.2008 3.98386 18.8531 3.36499 18.2342C2.74612 17.6154 2.39844 16.776 2.39844 15.9008V8.10078ZM5.69844 6.00078C5.14148 6.00078 4.60734 6.22203 4.21351 6.61586C3.81969 7.00968 3.59844 7.54383 3.59844 8.10078V9.60078H20.3984V8.10078C20.3984 7.54383 20.1772 7.00968 19.7834 6.61586C19.3895 6.22203 18.8554 6.00078 18.2984 6.00078H5.69844ZM20.3984 10.8008H3.59844V15.9008C3.59844 17.06 4.53924 18.0008 5.69844 18.0008H18.2984C18.8554 18.0008 19.3895 17.7795 19.7834 17.3857C20.1772 16.9919 20.3984 16.4577 20.3984 15.9008V10.8008Z" fill="black"/>
</svg>
