<svg width="24" height="24" viewBox="0 0 24 24" fill="none" xmlns="http://www.w3.org/2000/svg">
<g clip-path="url(#clip0_2064_38)">
<path d="M23.6194 3.05811C24.1294 0.858108 19.9104 -0.460892 17.7814 0.149108C16.1214 0.669108 15.6214 1.90911 16.0814 2.94811C15.9233 3.50365 15.9403 4.09443 16.1299 4.64C16.3196 5.18558 16.6728 5.65945 17.1414 5.99711C17.978 6.52723 18.9505 6.80284 19.9408 6.79041C20.9311 6.77799 21.8965 6.47806 22.7194 5.92711C22.6512 6.17598 22.5337 6.40864 22.374 6.61132C22.2142 6.814 22.0155 6.98259 21.7894 7.10711C21.3874 7.42011 20.9294 7.65411 20.4394 7.79611C20.3599 7.80672 20.2878 7.8485 20.239 7.91226C20.1903 7.97602 20.1688 8.05654 20.1794 8.13611C20.1901 8.21567 20.2318 8.28777 20.2956 8.33652C20.3594 8.38528 20.4399 8.40672 20.5194 8.39611C21.3578 8.46237 22.192 8.22452 22.8694 7.72611C23.2203 7.40833 23.465 6.99043 23.5706 6.52898C23.6761 6.06753 23.6373 5.58479 23.4594 5.14611C23.645 4.83386 23.756 4.48299 23.7837 4.12083C23.8115 3.75867 23.7553 3.39499 23.6194 3.05811ZM18.1214 1.18811C19.1754 0.903764 20.2889 0.928061 21.3294 1.25811C23.6694 1.94811 23.3294 3.34811 21.5494 3.74811C18.4014 4.46811 15.4424 2.12811 18.1214 1.18811ZM20.1204 5.64711C19.2928 5.67722 18.47 5.50922 17.7204 5.15711C17.465 5.03697 17.2456 4.85177 17.0843 4.62009C16.923 4.38841 16.8255 4.11839 16.8014 3.83711C17.7089 4.45907 18.777 4.80513 19.8768 4.83352C20.9766 4.86191 22.0611 4.57142 22.9994 3.99711C22.8294 5.24711 21.3894 5.61711 20.0794 5.64711H20.1204ZM6.73544 5.82711C7.60544 8.08611 11.7334 8.38611 13.5534 6.68711C13.9153 6.35304 14.1666 5.91653 14.2738 5.43587C14.381 4.95521 14.339 4.45328 14.1534 3.99711C14.6634 1.79811 10.4434 0.479108 8.30544 1.08911C6.65544 1.60911 6.15544 2.84811 6.61544 3.88711C6.48519 4.53315 6.52656 5.20205 6.73544 5.82711ZM12.9434 5.99711C11.6934 6.99711 8.00544 6.86711 7.39544 5.24711C7.35111 5.10316 7.31768 4.95608 7.29544 4.80711C8.21201 5.43675 9.29274 5.78454 10.4045 5.80764C11.5163 5.83074 12.6105 5.52813 13.5524 4.93711C13.5291 5.14624 13.4629 5.34832 13.358 5.53071C13.253 5.71309 13.1115 5.87187 12.9424 5.99711M11.8624 2.22811C14.2124 2.91811 13.8624 4.31811 12.0824 4.72811C10.8521 5.00074 9.56512 4.83448 8.44444 4.25811C6.20444 2.90811 8.76444 1.31811 11.8624 2.22811ZM1.71744 12.1941C1.79744 12.1941 4.51744 11.3241 4.59744 11.2941C4.56149 11.3251 4.53264 11.3635 4.51286 11.4066C4.49309 11.4497 4.48285 11.4966 4.48285 11.5441C4.48285 11.5916 4.49309 11.6385 4.51286 11.6816C4.53264 11.7248 4.56149 11.7631 4.59744 11.7941C4.85744 12.0741 4.26744 12.7941 4.10744 12.9841C3.80744 13.4731 3.43744 13.9141 3.00744 14.2941C2.68744 14.5041 2.67744 14.1741 2.56744 14.1141C2.45744 14.0541 2.14744 13.4741 1.97744 13.4141C1.80744 13.3541 1.45744 13.6141 1.67744 13.9441C1.89744 14.2741 2.11744 14.5341 2.37744 14.8731C4.13744 18.2221 4.28744 18.6611 4.77744 19.1311C4.90423 19.2655 5.06035 19.3689 5.23363 19.433C5.40692 19.4972 5.59268 19.5205 5.77644 19.5011C7.30644 19.4111 19.6404 15.3531 21.5194 14.5031C21.6555 14.452 21.7787 14.3718 21.8806 14.2682C21.9825 14.1646 22.0606 14.04 22.1094 13.9031C22.2594 12.9731 17.3414 7.76611 15.8124 7.57611C14.8124 7.45611 4.31644 10.4951 1.69744 11.5741C1.64178 11.6055 1.59579 11.6516 1.56446 11.7073C1.53313 11.763 1.51765 11.8263 1.51971 11.8902C1.52177 11.9541 1.54129 12.0162 1.57615 12.0697C1.61101 12.1233 1.65987 12.1663 1.71744 12.1941ZM18.1114 14.5441C18.5867 13.7523 19.1837 13.0403 19.8804 12.4341C20.2124 12.7691 20.4944 13.1491 20.7204 13.5641C20.0004 13.8641 18.8514 14.2741 18.1114 14.5441ZM10.0034 9.83511C10.0934 9.83511 15.2314 8.51511 15.6714 8.57511C16.4314 8.68511 18.6694 11.1451 19.2294 11.7251C17.6994 12.4341 17.0704 14.0931 17.3504 14.8031C16.4604 15.1231 9.53344 17.5421 7.95444 18.0721C7.48444 15.8521 3.83544 15.9021 4.23544 16.8021C4.25319 16.8636 4.29217 16.9167 4.34544 16.9521C4.34544 16.9521 4.97544 17.0121 5.21544 17.1221C5.96844 17.3501 6.65544 17.7591 7.21544 18.3121C6.66592 18.5178 6.09036 18.6457 5.50544 18.6921C5.10544 18.5921 4.78544 17.9021 3.12544 14.9721C5.19544 14.5731 6.12544 11.9741 5.00544 11.2641C4.91544 11.1541 4.06544 11.3741 10.0034 9.83511Z" fill="black"/>
<path d="M9.43462 13.3221C9.86462 13.9521 10.6846 13.8221 11.4346 13.7121C12.6436 13.5221 12.7136 14.0521 11.6746 14.4021C11.3533 14.5137 11.0148 14.5678 10.6746 14.5621C10.6285 14.5543 10.5813 14.5561 10.5359 14.5673C10.4905 14.5785 10.4479 14.5989 10.4107 14.6272C10.3735 14.6555 10.3425 14.6912 10.3196 14.732C10.2967 14.7727 10.2825 14.8178 10.2777 14.8643C10.2729 14.9108 10.2777 14.9578 10.2917 15.0024C10.3058 15.0469 10.3289 15.0882 10.3595 15.1235C10.3902 15.1588 10.4277 15.1875 10.4699 15.2077C10.512 15.2279 10.5579 15.2393 10.6046 15.2411C11.0716 15.3141 11.5486 15.2871 12.0046 15.1611C12.0046 15.4911 12.8136 16.0711 13.0936 15.9011C13.3736 15.7311 13.0936 14.8411 13.0936 14.7611V14.6911C14.0136 13.9311 13.3636 12.7811 12.3736 12.5611C11.705 12.54 11.0359 12.5768 10.3736 12.6711C10.1036 12.3621 9.50462 11.8621 11.6836 12.0321C11.723 12.038 11.7632 12.0361 11.8019 12.0265C11.8405 12.0169 11.8769 11.9997 11.9089 11.976C11.941 11.9524 11.968 11.9226 11.9886 11.8885C12.0091 11.8543 12.0227 11.8165 12.0286 11.7771C12.0345 11.7377 12.0326 11.6975 12.023 11.6589C12.0134 11.6202 11.9963 11.5838 11.9726 11.5518C11.9489 11.5197 11.9191 11.4927 11.885 11.4721C11.8509 11.4516 11.813 11.438 11.7736 11.4321C11.3898 11.3404 10.9979 11.2868 10.6036 11.2721C10.3936 10.7221 9.60462 10.3521 9.35462 10.4921C9.10462 10.6321 9.35462 11.3921 9.49462 11.6121C9.32134 11.7868 9.19717 12.0041 9.13462 12.2421C9.00462 12.5921 9.24462 12.9921 9.43462 13.3221ZM13.2236 10.0631C13.7382 10.577 14.3757 10.9507 15.0755 11.1485C15.7754 11.3463 16.5142 11.3617 17.2216 11.1931C17.2663 11.1931 17.3105 11.1843 17.3517 11.1672C17.393 11.1501 17.4305 11.1251 17.462 11.0935C17.4936 11.0619 17.5187 11.0245 17.5357 10.9832C17.5528 10.942 17.5616 10.8977 17.5616 10.8531C17.5616 10.8084 17.5528 10.7642 17.5357 10.723C17.5187 10.6817 17.4936 10.6442 17.462 10.6127C17.4305 10.5811 17.393 10.5561 17.3517 10.539C17.3105 10.5219 17.2663 10.5131 17.2216 10.5131C15.9444 10.2789 14.7041 9.87532 13.5336 9.31309C13.2036 9.11309 12.5236 9.64309 13.2236 10.0631Z" fill="black"/>
<path d="M3.18693 19.6608C3.62393 20.3128 4.15693 20.8958 4.76693 21.3908C6.76393 22.4998 19.7589 17.2908 21.9089 16.4608C21.983 16.4207 22.0401 16.3553 22.0698 16.2765C22.0995 16.1977 22.0998 16.1108 22.0706 16.0318C22.0414 15.9528 21.9848 15.887 21.911 15.8464C21.8372 15.8058 21.7513 15.7932 21.6689 15.8108C20.6689 16.1808 6.19593 20.9798 5.22593 20.4998C4.72593 20.1028 4.27593 19.6458 3.88593 19.1398C2.82593 17.7998 1.75693 15.2418 1.24793 15.3018C1.20249 15.3032 1.15795 15.3149 1.11769 15.336C1.07742 15.3571 1.04248 15.3871 1.01551 15.4237C0.988544 15.4603 0.970246 15.5026 0.962003 15.5473C0.95376 15.592 0.955788 15.638 0.967933 15.6818C1.63997 17.0444 2.38059 18.3731 3.18693 19.6608Z" fill="black"/>
<path d="M22.0009 18.0624C20.8909 18.4624 5.77792 23.4294 4.65792 22.9404C4.13458 22.5496 3.66105 22.0962 3.24792 21.5904C2.18992 20.3304 1.30092 18.4914 0.790924 17.9224C0.560924 17.6624 0.140924 17.8024 0.220924 18.1724C0.220924 18.3524 0.670924 18.7924 0.920924 19.2824C1.05092 19.5124 1.15092 19.7614 1.26092 20.0014C1.85205 21.1903 2.6205 22.2824 3.53992 23.2404C3.72379 23.5121 3.98115 23.726 4.28198 23.857C4.58281 23.9881 4.9147 24.0308 5.23892 23.9804C9.23692 23.7504 18.5439 20.1404 22.2319 18.7114C22.3036 18.6709 22.3588 18.6064 22.3877 18.5293C22.4166 18.4522 22.4174 18.3674 22.3899 18.2898C22.3625 18.2121 22.3085 18.1467 22.2375 18.1049C22.1666 18.0631 22.0831 18.0477 22.0019 18.0614" fill="black"/>
</g>
<defs>
<clipPath id="clip0_2064_38">
<rect width="24" height="24" fill="white"/>
</clipPath>
</defs>
</svg>
